<svg width="817" height="647" viewBox="0 0 817 647" fill="none" xmlns="http://www.w3.org/2000/svg">
<g opacity="0.8">
<g filter="url(#filter0_f_19_3)">
<path fill-rule="evenodd" clip-rule="evenodd" d="M672.678 433.213L709.858 497.609H294.61L331.79 433.213H672.678ZM663.987 418.159L633.689 365.681H370.779L340.481 418.159H663.987ZM600.252 307.766L625.963 352.3H378.505L404.216 307.766H600.252ZM594.457 297.73L573.212 260.932H431.256L410.01 297.73H594.457ZM551.001 222.462L568.384 252.569H436.084L453.467 222.462H551.001ZM546.173 214.099L531.688 189.009H472.78L458.295 214.099H546.173ZM516.719 163.084L527.825 182.319H476.643L487.749 163.084H516.719ZM513.822 158.066L502.234 137.994L490.646 158.066H513.822ZM236.768 597.795L284.954 514.335H719.514L767.7 597.795H236.768Z" fill="#FD247F"/>
</g>
<g filter="url(#filter1_f_19_3)">
<path fill-rule="evenodd" clip-rule="evenodd" d="M230.539 131L279.614 46L328.688 131L328.69 131.003L279.616 216.003L279.614 216L193.224 365.631H351.816L302.742 450.631H144.15H46L95.0748 365.631L230.539 131Z" fill="#15B9EC"/>
</g>
</g>
<path fill-rule="evenodd" clip-rule="evenodd" d="M672.678 433.213L709.858 497.609H294.61L331.79 433.213H672.678ZM663.987 418.159L633.689 365.681H370.779L340.481 418.159H663.987ZM600.252 307.766L625.963 352.3H378.505L404.216 307.766H600.252ZM594.457 297.73L573.212 260.932H431.256L410.01 297.73H594.457ZM551.001 222.462L568.384 252.569H436.084L453.467 222.462H551.001ZM546.173 214.099L531.688 189.009H472.78L458.295 214.099H546.173ZM516.719 163.084L527.825 182.319H476.643L487.749 163.084H516.719ZM513.822 158.066L502.234 137.994L490.646 158.066H513.822ZM236.768 597.795L284.954 514.335H719.514L767.7 597.795H236.768Z" fill="#FD247F"/>
<path fill-rule="evenodd" clip-rule="evenodd" d="M230.539 131L279.614 46L328.688 131L328.69 131.003L279.616 216.003L279.614 216L193.224 365.631H351.816L302.742 450.631H144.15H46L95.0748 365.631L230.539 131Z" fill="#15B9EC"/>
<defs>
<filter id="filter0_f_19_3" x="187.868" y="89.0944" width="628.732" height="557.601" filterUnits="userSpaceOnUse" color-interpolation-filters="sRGB">
<feFlood flood-opacity="0" result="BackgroundImageFix"/>
<feBlend mode="normal" in="SourceGraphic" in2="BackgroundImageFix" result="shape"/>
<feGaussianBlur stdDeviation="24.45" result="effect1_foregroundBlur_19_3"/>
</filter>
<filter id="filter1_f_19_3" x="0.5" y="0.5" width="396.816" height="495.631" filterUnits="userSpaceOnUse" color-interpolation-filters="sRGB">
<feFlood flood-opacity="0" result="BackgroundImageFix"/>
<feBlend mode="normal" in="SourceGraphic" in2="BackgroundImageFix" result="shape"/>
<feGaussianBlur stdDeviation="22.75" result="effect1_foregroundBlur_19_3"/>
</filter>
</defs>
</svg>
